# Wavefront Obj file
# 
# verts: 114 uv-s: 166
mtllib character.mtl

g Sphere001
#pivot 0.000000 0.000000 0.000000

v 0.000000 -10.000000 0.000000
v -3.826800 -9.238800 0.000000
v -3.535500 -9.238800 -1.464500
v -2.706000 -9.238800 -2.706000
v -1.464500 -9.238800 -3.535500
v 0.000000 -9.238800 -3.826800
v 1.464500 -9.238800 -3.535500
v 2.706000 -9.238800 -2.706000
v 3.535500 -9.238800 -1.464500
v 3.826800 -9.238800 0.000000
v 3.535500 -9.238800 1.464500
v 2.706000 -9.238800 2.706000
v 1.464500 -9.238800 3.535500
v 0.000000 -9.238800 3.826800
v -1.464500 -9.238800 3.535500
v -2.706000 -9.238800 2.706000
v -3.535500 -9.238800 1.464500
v -7.071100 -7.071100 0.000000
v -6.532800 -7.071100 -2.706000
v -5.000000 -7.071100 -5.000000
v -2.706000 -7.071100 -6.532800
v 0.000000 -7.071100 -7.071100
v 2.706000 -7.071100 -6.532800
v 5.000000 -7.071100 -5.000000
v 6.532800 -7.071100 -2.706000
v 7.071100 -7.071100 0.000000
v 6.532800 -7.071100 2.706000
v 5.000000 -7.071100 5.000000
v 2.706000 -7.071100 6.532800
v 0.000000 -7.071100 7.071100
v -2.706000 -7.071100 6.532800
v -5.000000 -7.071100 5.000000
v -6.532800 -7.071100 2.706000
v -9.238800 -3.826800 0.000000
v -8.535500 -3.826800 -3.535500
v -6.532800 -3.826800 -6.532800
v -3.535500 -3.826800 -8.535500
v 0.000000 -3.826800 -9.238800
v 3.535500 -3.826800 -8.535500
v 6.532800 -3.826800 -6.532800
v 8.535500 -3.826800 -3.535500
v 9.238800 -3.826800 0.000000
v 8.535500 -3.826800 3.535500
v 6.532800 -3.826800 6.532800
v 3.535500 -3.826800 8.535500
v 0.000000 -3.826800 9.238800
v -3.535500 -3.826800 8.535500
v -6.532800 -3.826800 6.532800
v -8.535500 -3.826800 3.535500
v -10.000000 0.000000 0.000000
v -9.238800 0.000000 -3.826800
v -7.071100 0.000000 -7.071100
v -3.826800 0.000000 -9.238800
v 0.000000 0.000000 -10.000000
v 3.826800 0.000000 -9.238800
v 7.071100 0.000000 -7.071100
v 9.238800 0.000000 -3.826800
v 10.000000 0.000000 0.000000
v 9.238800 0.000000 3.826800
v 7.071100 0.000000 7.071100
v 3.826800 0.000000 9.238800
v 0.000000 0.000000 10.000000
v -3.826800 0.000000 9.238800
v -7.071100 0.000000 7.071100
v -9.238800 0.000000 3.826800
v -9.238800 3.826800 0.000000
v -8.535500 3.826800 -3.535500
v -6.532800 3.826800 -6.532800
v -3.535500 3.826800 -8.535500
v 0.000000 3.826800 -9.238800
v 3.535500 3.826800 -8.535500
v 6.532800 3.826800 -6.532800
v 8.535500 3.826800 -3.535500
v 9.238800 3.826800 0.000000
v 8.535500 3.826800 3.535500
v 6.532800 3.826800 6.532800
v 3.535500 3.826800 8.535500
v 0.000000 3.826800 9.238800
v -3.535500 3.826800 8.535500
v -6.532800 3.826800 6.532800
v -8.535500 3.826800 3.535500
v -7.071100 7.071100 0.000000
v -6.532800 7.071100 -2.706000
v -5.000000 7.071100 -5.000000
v -2.706000 7.071100 -6.532800
v 0.000000 7.071100 -7.071100
v 2.706000 7.071100 -6.532800
v 5.000000 7.071100 -5.000000
v 6.532800 7.071100 -2.706000
v 7.071100 7.071100 0.000000
v 6.532800 7.071100 2.706000
v 5.000000 7.071100 5.000000
v 2.706000 7.071100 6.532800
v 0.000000 7.071100 7.071100
v -2.706000 7.071100 6.532800
v -5.000000 7.071100 5.000000
v -6.532800 7.071100 2.706000
v -3.826800 9.238800 0.000000
v -3.535500 9.238800 -1.464500
v -2.706000 9.238800 -2.706000
v -1.464500 9.238800 -3.535500
v 0.000000 9.238800 -3.826800
v 1.464500 9.238800 -3.535500
v 2.706000 9.238800 -2.706000
v 3.535500 9.238800 -1.464500
v 3.826800 9.238800 0.000000
v 3.535500 9.238800 1.464500
v 2.706000 9.238800 2.706000
v 1.464500 9.238800 3.535500
v 0.000000 9.238800 3.826800
v -1.464500 9.238800 3.535500
v -2.706000 9.238800 2.706000
v -3.535500 9.238800 1.464500
v 0.000000 10.000000 0.000000
# 114 positions

vt 0.145889 0.145889
vt 0.145889 0.222136
vt 0.175068 0.216332
vt 0.199805 0.199805
vt 0.216332 0.175068
vt 0.222136 0.145889
vt 0.216332 0.116709
vt 0.199805 0.091973
vt 0.175068 0.075445
vt 0.145889 0.069641
vt 0.116709 0.075445
vt 0.091973 0.091973
vt 0.075445 0.116709
vt 0.069641 0.145889
vt 0.075445 0.175068
vt 0.091973 0.199805
vt 0.116709 0.216332
vt 0.145889 0.286778
vt 0.199805 0.276052
vt 0.245512 0.245512
vt 0.276052 0.199805
vt 0.286778 0.145889
vt 0.276052 0.091973
vt 0.245512 0.046266
vt 0.199805 0.015725
vt 0.145889 0.005000
vt 0.091973 0.015725
vt 0.046266 0.046266
vt 0.015725 0.091973
vt 0.005000 0.145889
vt 0.015725 0.199805
vt 0.046266 0.245512
vt 0.091973 0.276052
vt 0.531555 0.390666
vt 0.466914 0.390666
vt 0.466914 0.461109
vt 0.531555 0.444582
vt 0.466914 0.520829
vt 0.531555 0.490289
vt 0.245512 0.777964
vt 0.276052 0.713323
vt 0.216332 0.713323
vt 0.199805 0.777964
vt 0.145889 0.713323
vt 0.145889 0.777964
vt 0.075445 0.713323
vt 0.091973 0.777964
vt 0.015725 0.713323
vt 0.046266 0.777964
vt 0.457022 0.046266
vt 0.521663 0.015725
vt 0.521663 0.075445
vt 0.457022 0.091973
vt 0.521663 0.145889
vt 0.457022 0.145889
vt 0.521663 0.216332
vt 0.457022 0.199805
vt 0.521663 0.276052
vt 0.457022 0.245512
vt 0.746489 0.509241
vt 0.777030 0.573883
vt 0.717310 0.573883
vt 0.700782 0.509241
vt 0.646866 0.573883
vt 0.646866 0.509241
vt 0.576423 0.573883
vt 0.592950 0.509241
vt 0.516703 0.573883
vt 0.547244 0.509241
vt 0.531555 0.291043
vt 0.466914 0.260503
vt 0.466914 0.320223
vt 0.531555 0.336750
vt 0.390666 0.390666
vt 0.390666 0.466914
vt 0.390666 0.531555
vt 0.286777 0.637075
vt 0.222136 0.637075
vt 0.145889 0.637075
vt 0.069641 0.637075
vt 0.005000 0.637075
vt 0.597911 0.005000
vt 0.597911 0.069641
vt 0.597911 0.145889
vt 0.597911 0.222136
vt 0.597911 0.286778
vt 0.787755 0.650130
vt 0.723114 0.650130
vt 0.646866 0.650130
vt 0.570619 0.650130
vt 0.505978 0.650130
vt 0.390666 0.249777
vt 0.390666 0.314419
vt 0.314419 0.390666
vt 0.314419 0.461109
vt 0.314419 0.520829
vt 0.276052 0.560828
vt 0.216332 0.560828
vt 0.145889 0.560828
vt 0.075445 0.560828
vt 0.015725 0.560828
vt 0.674158 0.015725
vt 0.674158 0.075445
vt 0.674158 0.145889
vt 0.674158 0.216332
vt 0.674158 0.276052
vt 0.777030 0.726378
vt 0.717310 0.726378
vt 0.646866 0.726378
vt 0.576423 0.726378
vt 0.516703 0.726378
vt 0.314419 0.260503
vt 0.314419 0.320223
vt 0.249777 0.390666
vt 0.249777 0.444582
vt 0.249777 0.490289
vt 0.245512 0.496187
vt 0.199805 0.496187
vt 0.145889 0.496187
vt 0.091973 0.496187
vt 0.046266 0.496187
vt 0.738800 0.046266
vt 0.738800 0.091973
vt 0.738800 0.145889
vt 0.738800 0.199805
vt 0.738800 0.245512
vt 0.746489 0.791019
vt 0.700782 0.791019
vt 0.646866 0.791019
vt 0.592950 0.791019
vt 0.547244 0.791019
vt 0.249777 0.291043
vt 0.249777 0.336750
vt 0.854111 0.264464
vt 0.854111 0.329105
vt 0.824932 0.334909
vt 0.800195 0.275189
vt 0.800195 0.351437
vt 0.754488 0.305730
vt 0.783668 0.376173
vt 0.723948 0.351437
vt 0.777864 0.405353
vt 0.713223 0.405353
vt 0.783668 0.434532
vt 0.723948 0.459269
vt 0.800195 0.459269
vt 0.754488 0.504976
vt 0.824932 0.475796
vt 0.800195 0.535516
vt 0.854111 0.481600
vt 0.854111 0.546242
vt 0.883291 0.475796
vt 0.908027 0.535516
vt 0.908027 0.459269
vt 0.953734 0.504976
vt 0.924555 0.434532
vt 0.984275 0.459269
vt 0.930359 0.405353
vt 0.995000 0.405353
vt 0.924555 0.376173
vt 0.984275 0.351437
vt 0.908027 0.351437
vt 0.953734 0.305730
vt 0.883291 0.334909
vt 0.908027 0.275189
vt 0.854111 0.405353
# 166 texture coordinates

vn 0.000000 -1.000000 -0.000000
vn -0.382189 -0.924084 0.000000
vn -0.353099 -0.924083 -0.146257
vn -0.270250 -0.924083 -0.270250
vn -0.146257 -0.924083 -0.353099
vn 0.000000 -0.924084 -0.382189
vn 0.146257 -0.924083 -0.353099
vn 0.270250 -0.924083 -0.270250
vn 0.353099 -0.924083 -0.146257
vn 0.382189 -0.924084 0.000000
vn 0.353099 -0.924083 0.146257
vn 0.270250 -0.924083 0.270250
vn 0.146257 -0.924083 0.353099
vn 0.000000 -0.924084 0.382189
vn -0.146257 -0.924083 0.353099
vn -0.270250 -0.924083 0.270250
vn -0.353099 -0.924083 0.146257
vn -0.706585 -0.707628 0.000000
vn -0.652801 -0.707625 -0.270402
vn -0.499633 -0.707625 -0.499633
vn -0.270402 -0.707625 -0.652801
vn 0.000000 -0.707628 -0.706585
vn 0.270402 -0.707625 -0.652801
vn 0.499633 -0.707625 -0.499633
vn 0.652801 -0.707625 -0.270402
vn 0.706585 -0.707628 0.000000
vn 0.652801 -0.707625 0.270402
vn 0.499633 -0.707625 0.499633
vn 0.270402 -0.707625 0.652801
vn 0.000000 -0.707628 0.706585
vn -0.270402 -0.707625 0.652801
vn -0.499633 -0.707625 0.499633
vn -0.652801 -0.707625 0.270402
vn -0.923684 -0.383156 0.000000
vn -0.853372 -0.383156 -0.353479
vn -0.653142 -0.383159 -0.653142
vn -0.353479 -0.383156 -0.853372
vn 0.000000 -0.383156 -0.923684
vn 0.353479 -0.383156 -0.853372
vn 0.653142 -0.383159 -0.653142
vn 0.853372 -0.383156 -0.353479
vn 0.923684 -0.383156 0.000000
vn 0.853372 -0.383156 0.353479
vn 0.653142 -0.383159 0.653142
vn 0.353479 -0.383156 0.853372
vn 0.000000 -0.383156 0.923684
vn -0.353479 -0.383156 0.853372
vn -0.653142 -0.383159 0.653142
vn -0.853372 -0.383156 0.353479
vn -1.000000 0.000000 0.000000
vn -0.923881 0.000000 -0.382681
vn -0.707107 0.000000 -0.707107
vn -0.382681 0.000000 -0.923881
vn 0.000000 0.000000 -1.000000
vn 0.382681 0.000000 -0.923881
vn 0.707107 0.000000 -0.707107
vn 0.923881 0.000000 -0.382681
vn 1.000000 0.000000 0.000000
vn 0.923881 0.000000 0.382681
vn 0.707107 0.000000 0.707107
vn 0.382681 0.000000 0.923881
vn 0.000000 0.000000 1.000000
vn -0.382681 0.000000 0.923881
vn -0.707107 0.000000 0.707107
vn -0.923881 0.000000 0.382681
vn -0.923684 0.383156 0.000000
vn -0.853372 0.383156 -0.353479
vn -0.653142 0.383159 -0.653142
vn -0.353479 0.383156 -0.853372
vn 0.000000 0.383156 -0.923684
vn 0.353479 0.383156 -0.853372
vn 0.653142 0.383159 -0.653142
vn 0.853372 0.383156 -0.353479
vn 0.923684 0.383156 0.000000
vn 0.853372 0.383156 0.353479
vn 0.653142 0.383159 0.653142
vn 0.353479 0.383156 0.853372
vn -0.000000 0.383156 0.923684
vn -0.353479 0.383156 0.853372
vn -0.653142 0.383159 0.653142
vn -0.853372 0.383156 0.353479
vn -0.706585 0.707628 0.000000
vn -0.652801 0.707625 -0.270402
vn -0.499633 0.707625 -0.499633
vn -0.270402 0.707625 -0.652801
vn 0.000000 0.707628 -0.706585
vn 0.270402 0.707625 -0.652801
vn 0.499633 0.707625 -0.499633
vn 0.652801 0.707625 -0.270402
vn 0.706585 0.707628 0.000000
vn 0.652801 0.707625 0.270402
vn 0.499633 0.707625 0.499633
vn 0.270402 0.707625 0.652801
vn -0.000000 0.707628 0.706585
vn -0.270402 0.707625 0.652801
vn -0.499633 0.707625 0.499633
vn -0.652801 0.707625 0.270402
vn -0.382189 0.924084 0.000000
vn -0.353099 0.924083 -0.146257
vn -0.270250 0.924083 -0.270250
vn -0.146257 0.924083 -0.353099
vn 0.000000 0.924084 -0.382189
vn 0.146257 0.924083 -0.353099
vn 0.270250 0.924083 -0.270250
vn 0.353099 0.924083 -0.146257
vn 0.382189 0.924084 0.000000
vn 0.353099 0.924083 0.146257
vn 0.270250 0.924083 0.270250
vn 0.146257 0.924083 0.353099
vn 0.000000 0.924084 0.382189
vn -0.146257 0.924083 0.353099
vn -0.270250 0.924083 0.270250
vn -0.353099 0.924083 0.146257
vn 0.000000 1.000000 -0.000000
# 114 normals

usemtl wire_115115115
f 1/1/1 2/2/2 3/3/3
f 1/1/1 3/3/3 4/4/4
f 1/1/1 4/4/4 5/5/5
f 1/1/1 5/5/5 6/6/6
f 1/1/1 6/6/6 7/7/7
f 1/1/1 7/7/7 8/8/8
f 1/1/1 8/8/8 9/9/9
f 1/1/1 9/9/9 10/10/10
f 1/1/1 10/10/10 11/11/11
f 1/1/1 11/11/11 12/12/12
f 1/1/1 12/12/12 13/13/13
f 1/1/1 13/13/13 14/14/14
f 1/1/1 14/14/14 15/15/15
f 1/1/1 15/15/15 16/16/16
f 1/1/1 16/16/16 17/17/17
f 1/1/1 17/17/17 2/2/2
f 2/2/2 18/18/18 19/19/19 3/3/3
f 3/3/3 19/19/19 20/20/20 4/4/4
f 4/4/4 20/20/20 21/21/21 5/5/5
f 5/5/5 21/21/21 22/22/22 6/6/6
f 6/6/6 22/22/22 23/23/23 7/7/7
f 7/7/7 23/23/23 24/24/24 8/8/8
f 8/8/8 24/24/24 25/25/25 9/9/9
f 9/9/9 25/25/25 26/26/26 10/10/10
f 10/10/10 26/26/26 27/27/27 11/11/11
f 11/11/11 27/27/27 28/28/28 12/12/12
f 12/12/12 28/28/28 29/29/29 13/13/13
f 13/13/13 29/29/29 30/30/30 14/14/14
f 14/14/14 30/30/30 31/31/31 15/15/15
f 15/15/15 31/31/31 32/32/32 16/16/16
f 16/16/16 32/32/32 33/33/33 17/17/17
f 17/17/17 33/33/33 18/18/18 2/2/2
f 18/34/18 34/35/34 35/36/35 19/37/19
f 19/37/19 35/36/35 36/38/36 20/39/20
f 20/40/20 36/41/36 37/42/37 21/43/21
f 21/43/21 37/42/37 38/44/38 22/45/22
f 22/45/22 38/44/38 39/46/39 23/47/23
f 23/47/23 39/46/39 40/48/40 24/49/24
f 24/50/24 40/51/40 41/52/41 25/53/25
f 25/53/25 41/52/41 42/54/42 26/55/26
f 26/55/26 42/54/42 43/56/43 27/57/27
f 27/57/27 43/56/43 44/58/44 28/59/28
f 28/60/28 44/61/44 45/62/45 29/63/29
f 29/63/29 45/62/45 46/64/46 30/65/30
f 30/65/30 46/64/46 47/66/47 31/67/31
f 31/67/31 47/66/47 48/68/48 32/69/32
f 32/70/32 48/71/48 49/72/49 33/73/33
f 33/73/33 49/72/49 34/35/34 18/34/18
f 34/35/34 50/74/50 51/75/51 35/36/35
f 35/36/35 51/75/51 52/76/52 36/38/36
f 36/41/36 52/77/52 53/78/53 37/42/37
f 37/42/37 53/78/53 54/79/54 38/44/38
f 38/44/38 54/79/54 55/80/55 39/46/39
f 39/46/39 55/80/55 56/81/56 40/48/40
f 40/51/40 56/82/56 57/83/57 41/52/41
f 41/52/41 57/83/57 58/84/58 42/54/42
f 42/54/42 58/84/58 59/85/59 43/56/43
f 43/56/43 59/85/59 60/86/60 44/58/44
f 44/61/44 60/87/60 61/88/61 45/62/45
f 45/62/45 61/88/61 62/89/62 46/64/46
f 46/64/46 62/89/62 63/90/63 47/66/47
f 47/66/47 63/90/63 64/91/64 48/68/48
f 48/71/48 64/92/64 65/93/65 49/72/49
f 49/72/49 65/93/65 50/74/50 34/35/34
f 50/74/50 66/94/66 67/95/67 51/75/51
f 51/75/51 67/95/67 68/96/68 52/76/52
f 52/77/52 68/97/68 69/98/69 53/78/53
f 53/78/53 69/98/69 70/99/70 54/79/54
f 54/79/54 70/99/70 71/100/71 55/80/55
f 55/80/55 71/100/71 72/101/72 56/81/56
f 56/82/56 72/102/72 73/103/73 57/83/57
f 57/83/57 73/103/73 74/104/74 58/84/58
f 58/84/58 74/104/74 75/105/75 59/85/59
f 59/85/59 75/105/75 76/106/76 60/86/60
f 60/87/60 76/107/76 77/108/77 61/88/61
f 61/88/61 77/108/77 78/109/78 62/89/62
f 62/89/62 78/109/78 79/110/79 63/90/63
f 63/90/63 79/110/79 80/111/80 64/91/64
f 64/92/64 80/112/80 81/113/81 65/93/65
f 65/93/65 81/113/81 66/94/66 50/74/50
f 66/94/66 82/114/82 83/115/83 67/95/67
f 67/95/67 83/115/83 84/116/84 68/96/68
f 68/97/68 84/117/84 85/118/85 69/98/69
f 69/98/69 85/118/85 86/119/86 70/99/70
f 70/99/70 86/119/86 87/120/87 71/100/71
f 71/100/71 87/120/87 88/121/88 72/101/72
f 72/102/72 88/122/88 89/123/89 73/103/73
f 73/103/73 89/123/89 90/124/90 74/104/74
f 74/104/74 90/124/90 91/125/91 75/105/75
f 75/105/75 91/125/91 92/126/92 76/106/76
f 76/107/76 92/127/92 93/128/93 77/108/77
f 77/108/77 93/128/93 94/129/94 78/109/78
f 78/109/78 94/129/94 95/130/95 79/110/79
f 79/110/79 95/130/95 96/131/96 80/111/80
f 80/112/80 96/132/96 97/133/97 81/113/81
f 81/113/81 97/133/97 82/114/82 66/94/66
f 82/134/82 98/135/98 99/136/99 83/137/83
f 83/137/83 99/136/99 100/138/100 84/139/84
f 84/139/84 100/138/100 101/140/101 85/141/85
f 85/141/85 101/140/101 102/142/102 86/143/86
f 86/143/86 102/142/102 103/144/103 87/145/87
f 87/145/87 103/144/103 104/146/104 88/147/88
f 88/147/88 104/146/104 105/148/105 89/149/89
f 89/149/89 105/148/105 106/150/106 90/151/90
f 90/151/90 106/150/106 107/152/107 91/153/91
f 91/153/91 107/152/107 108/154/108 92/155/92
f 92/155/92 108/154/108 109/156/109 93/157/93
f 93/157/93 109/156/109 110/158/110 94/159/94
f 94/159/94 110/158/110 111/160/111 95/161/95
f 95/161/95 111/160/111 112/162/112 96/163/96
f 96/163/96 112/162/112 113/164/113 97/165/97
f 97/165/97 113/164/113 98/135/98 82/134/82
f 114/166/114 99/136/99 98/135/98
f 114/166/114 100/138/100 99/136/99
f 114/166/114 101/140/101 100/138/100
f 114/166/114 102/142/102 101/140/101
f 114/166/114 103/144/103 102/142/102
f 114/166/114 104/146/104 103/144/103
f 114/166/114 105/148/105 104/146/104
f 114/166/114 106/150/106 105/148/105
f 114/166/114 107/152/107 106/150/106
f 114/166/114 108/154/108 107/152/107
f 114/166/114 109/156/109 108/154/108
f 114/166/114 110/158/110 109/156/109
f 114/166/114 111/160/111 110/158/110
f 114/166/114 112/162/112 111/160/111
f 114/166/114 113/164/113 112/162/112
f 114/166/114 98/135/98 113/164/113

# 128 faces
