# 3ds Max Wavefront OBJ Exporter v0.97b - (c)2007 guruware
# File Created: 07.05.2019 14:55:27

#
# object Line001
#

v  -49.4142 -39.7071 -0.6040
v  -69.2533 -0.0287 -0.6040
v  -69.2533 -0.0287 0.7056
v  -49.4142 -39.7071 0.7056
v  -70.7467 0.0287 0.7056
v  -50.5858 -40.2929 0.7056
v  -70.7467 0.0287 -0.6040
v  -50.5858 -40.2929 -0.6040
v  -39.6291 49.3450 -0.6040
v  -39.6291 49.3450 0.7056
v  -40.3709 50.6550 0.7056
v  -40.3709 50.6550 -0.6040
v  -20.3709 49.3450 -0.6040
v  -20.3709 49.3450 0.7056
v  -19.6291 50.6550 0.7056
v  -19.6291 50.6550 -0.6040
v  9.2534 -0.0287 -0.6040
v  9.2534 -0.0287 0.7056
v  10.7466 0.0287 0.7056
v  10.7467 0.0287 -0.6040
v  -10.5858 -39.7071 -0.6040
v  -10.5858 -39.7071 0.7056
v  -9.4141 -40.2929 0.7056
v  -9.4141 -40.2929 -0.6040
# 24 vertices

vn 0.8944 0.4472 0.0000
vn 0.7984 -0.0307 -0.6014
vn 0.7984 -0.0307 0.6014
vn 0.6325 0.3162 0.7071
vn -0.7395 -0.3697 0.5625
vn -0.6325 -0.3162 0.7071
vn -0.8944 -0.4472 -0.0000
vn 0.3162 -0.6325 -0.7071
vn 0.0000 0.0000 -1.0000
vn 0.8575 -0.5145 -0.0000
vn 0.0000 0.0000 1.0000
vn 0.0000 -0.3524 0.9359
vn -0.8575 0.5145 0.0000
vn -0.8575 0.5145 -0.0000
vn 0.0000 0.8300 -0.5578
vn 0.0000 -1.0000 -0.0000
vn 0.0000 -0.6015 -0.7988
vn -0.3917 -0.6918 0.6066
vn 0.0000 1.0000 -0.0000
vn -0.8575 -0.5145 -0.0000
vn -0.9993 -0.0384 -0.0000
vn -0.7984 -0.0307 0.6014
vn -0.0000 0.0000 1.0000
vn 0.8575 0.5145 0.0000
vn 0.7090 0.4254 0.5625
vn 0.7090 0.4254 -0.5625
vn 0.7117 0.4270 -0.5578
vn 0.0000 -0.0000 -1.0000
vn -1.0000 0.0001 -0.0000
vn -0.8944 0.4472 -0.0000
vn 0.8944 -0.4472 0.0000
vn 0.4472 -0.8944 -0.0000
vn -0.4472 -0.8944 0.0000
# 33 vertex normals

vt 0.4945 0.3876 0.0000
vt 0.7142 0.3876 0.0000
vt 0.7142 0.3948 0.0000
vt 0.4945 0.3948 0.0000
vt 0.3800 0.3943 0.0000
vt 0.1511 0.4109 0.0000
vt 0.1469 0.4044 0.0000
vt 0.3795 0.3876 0.0000
vt 0.4945 0.0020 0.0000
vt 0.7177 0.0020 0.0000
vt 0.7177 0.0092 0.0000
vt 0.4945 0.0092 0.0000
vt 0.4883 0.1851 0.0000
vt 0.3623 0.3814 0.0000
vt 0.3586 0.3746 0.0000
vt 0.4826 0.1815 0.0000
vt 0.9875 0.3876 0.0000
vt 0.9875 0.3948 0.0000
vt 0.0098 0.6732 0.0000
vt 0.0020 0.6733 0.0000
vt 0.9980 0.0020 0.0000
vt 0.9980 0.0092 0.0000
vt 0.0568 0.3800 0.0000
vt 0.0607 0.3733 0.0000
vt 0.8116 0.0239 0.0000
vt 0.6867 0.0239 0.0000
vt 0.6867 0.0155 0.0000
vt 0.8116 0.0155 0.0000
vt 0.0607 0.7588 0.0000
vt 0.0568 0.7656 0.0000
vt 0.3324 0.7816 0.0000
vt 0.1983 0.7816 0.0000
vt 0.1983 0.7731 0.0000
vt 0.3324 0.7731 0.0000
vt 0.0020 0.2878 0.0000
vt 0.0098 0.2876 0.0000
vt 0.4945 0.0239 0.0000
vt 0.4945 0.0155 0.0000
vt 0.3586 0.7601 0.0000
vt 0.3623 0.7669 0.0000
vt 0.0020 0.7816 0.0000
vt 0.0020 0.7731 0.0000
vt 0.1469 0.0189 0.0000
vt 0.1511 0.0254 0.0000
vt 0.2191 0.7949 0.0000
vt 0.0020 0.7949 0.0000
vt 0.0020 0.7878 0.0000
vt 0.2191 0.7878 0.0000
vt 0.4826 0.5670 0.0000
vt 0.4883 0.5707 0.0000
vt 0.7151 0.4082 0.0000
vt 0.4945 0.4082 0.0000
vt 0.4945 0.4010 0.0000
vt 0.7151 0.4010 0.0000
vt 0.3795 0.0020 0.0000
vt 0.3800 0.0088 0.0000
vt 0.5017 0.0302 0.0000
vt 0.5017 0.0366 0.0000
vt 0.4945 0.0366 0.0000
vt 0.4945 0.0302 0.0000
vt 0.3458 0.7731 0.0000
vt 0.3458 0.7795 0.0000
vt 0.3386 0.7795 0.0000
vt 0.3386 0.7731 0.0000
# 64 texture coords

g Line001
s 3
f 1/1/1 2/2/2 3/3/3 4/4/4 
s 5
f 4/5/4 3/6/3 5/7/5 6/8/6 
s 6
f 6/9/6 5/10/5 7/11/7 8/12/7 
s 24
f 8/13/8 7/14/9 2/15/9 1/16/8 
s 34
f 2/2/2 9/17/10 10/18/10 3/3/3 
s 24
f 3/6/11 10/19/12 11/20/11 5/7/11 
s 96
f 5/10/13 11/21/14 12/22/13 7/11/13 
s 129
f 7/14/9 12/23/15 9/24/9 2/15/2 
s 20
f 9/25/16 13/26/17 14/27/18 10/28/12 
s 5
f 10/19/12 14/29/18 15/30/11 11/20/11 
s 130
f 11/31/19 15/32/19 16/33/19 12/34/15 
s 264
f 12/23/9 16/35/9 13/36/9 9/24/9 
s 3
f 13/26/20 17/37/21 18/38/22 14/27/18 
s 40
f 14/29/23 18/39/22 19/40/23 15/30/23 
s 80
f 15/32/24 19/41/25 20/42/26 16/33/27 
s 20
f 16/35/27 20/43/26 17/44/28 13/36/17 
s 34
f 17/45/21 21/46/29 22/47/30 18/48/22 
s 68
f 18/39/23 22/49/23 23/50/23 19/40/25 
s 3
f 19/51/31 23/52/31 24/53/31 20/54/31 
s 136
f 20/43/28 24/55/28 21/56/28 17/44/28 
s 40
f 4/57/32 6/58/32 8/59/8 1/60/8 
s 16
f 23/61/33 22/62/33 21/63/33 
s 32
f 24/64/33 23/61/33 21/63/29 
# 21 polygons - 2 triangles

